<svg xmlns="http://www.w3.org/2000/svg" viewBox="0 0 900 600"><rect width="900" height="600" fill="#050505"/><text x="42" y="360" fill="#fff" font-family="Georgia,serif" font-size="210">L</text><circle cx="430" cy="265" r="150" fill="none" stroke="#efb9c6" stroke-width="10"/><text x="570" y="360" fill="#efb9c6" font-family="Georgia,serif" font-size="210">A</text><path d="M360 220c-45-80 35-130 72-72 37-58 117-8 72 72-17 30-55 58-72 71-17-13-55-41-72-71z" fill="none" stroke="#fff" stroke-width="7"/><circle cx="420" cy="232" r="10" fill="#efb9c6"/><path d="M693 85l18 42 46 4-35 29 10 45-39-23-40 23 11-45-36-29 46-4z" fill="none" stroke="#efb9c6" stroke-width="6"/><text x="305" y="510" fill="#fff" font-family="Arial,sans-serif" font-size="38" letter-spacing="18">ENGLAND</text><path d="M35 492h170M695 492h170" stroke="#efb9c6" stroke-width="4"/><circle cx="235" cy="492" r="12" fill="#efb9c6"/><circle cx="665" cy="492" r="12" fill="#efb9c6"/></svg>